<svg width="73" height="72" viewBox="0 0 73 72" fill="none" xmlns="http://www.w3.org/2000/svg">
<path d="M21.6084 29.3672H28.1786V50.4994H21.6084V29.3672ZM24.8935 18.8608C25.647 18.8602 26.3838 19.083 27.0107 19.5011C27.6376 19.9192 28.1265 20.5138 28.4154 21.2097C28.7044 21.9056 28.7805 22.6716 28.6342 23.4108C28.4878 24.1499 28.1255 24.8291 27.5932 25.3624C27.0608 25.8957 26.3823 26.2592 25.6434 26.4068C24.9044 26.5545 24.1383 26.4797 23.4419 26.1919C22.7455 25.9042 22.15 25.4164 21.7308 24.7902C21.3117 24.164 21.0876 23.4276 21.0869 22.6741C21.0869 21.6639 21.4877 20.695 22.2014 19.9801C22.9151 19.2651 23.8833 18.8626 24.8935 18.8608" fill="white"/>
<path d="M32.2979 29.3672H38.6089V32.257H38.6986C39.5755 30.5962 41.718 28.8457 44.9134 28.8457C51.5566 28.8457 52.7923 33.2203 52.7923 38.9102V50.4994H46.2155V40.2223C46.2155 37.7709 46.1723 34.6187 42.8008 34.6187C39.4294 34.6187 38.8647 37.276 38.8647 40.0462V50.4994H32.2979V29.3672Z" fill="white"/>
<path d="M36.6025 71.0103C55.9325 71.0103 71.6025 55.3402 71.6025 36.0103C71.6025 16.6803 55.9325 1.01025 36.6025 1.01025C17.2726 1.01025 1.60254 16.6803 1.60254 36.0103C1.60254 55.3402 17.2726 71.0103 36.6025 71.0103Z" stroke="white" stroke-width="1.5" stroke-miterlimit="10"/>
</svg>
