<svg xmlns="http://www.w3.org/2000/svg" viewBox="0 0 33.38 33.38"><defs><style>.cls-1{fill:#fff;}</style></defs><g id="Layer_2" data-name="Layer 2"><g id="ELEMENTS"><path class="cls-1" d="M27.13,7.39a1.08,1.08,0,1,0-1.07,1.08A1.07,1.07,0,0,0,27.13,7.39Z"/><path class="cls-1" d="M16.84,9a7.71,7.71,0,1,0,7.71,7.71A7.72,7.72,0,0,0,16.84,9Zm0,14.29a6.58,6.58,0,1,1,6.58-6.58A6.59,6.59,0,0,1,16.84,23.27Z"/><path class="cls-1" d="M23.75,0H9.63A9.64,9.64,0,0,0,0,9.63V23.75a9.64,9.64,0,0,0,9.63,9.63H23.75a9.64,9.64,0,0,0,9.63-9.63V9.63A9.64,9.64,0,0,0,23.75,0Zm8.3,23.75a8.31,8.31,0,0,1-8.3,8.3H9.63a8.31,8.31,0,0,1-8.3-8.3V9.63a8.31,8.31,0,0,1,8.3-8.3H23.75a8.31,8.31,0,0,1,8.3,8.3Z"/></g></g></svg>