<svg width="73" height="73" viewBox="0 0 73 73" fill="none" xmlns="http://www.w3.org/2000/svg">
<path d="M21.5059 29.8569H28.0761V50.9891H21.5059V29.8569ZM24.791 19.3506C25.5445 19.3499 26.2813 19.5727 26.9082 19.9908C27.5351 20.4089 28.0239 21.0035 28.3129 21.6994C28.6019 22.3954 28.678 23.1613 28.5316 23.9005C28.3853 24.6397 28.023 25.3189 27.4906 25.8522C26.9583 26.3854 26.2797 26.7489 25.5408 26.8965C24.8019 27.0442 24.0358 26.9694 23.3394 26.6817C22.6429 26.3939 22.0475 25.9061 21.6283 25.2799C21.2091 24.6538 20.985 23.9173 20.9844 23.1638C20.9844 22.1536 21.3852 21.1847 22.0989 20.4698C22.8126 19.7549 23.7808 19.3523 24.791 19.3506" fill="#BEE1D6"/>
<path d="M32.1953 29.8569H38.5064V32.7468H38.5961C39.473 31.0859 41.6154 29.3354 44.8109 29.3354C51.4541 29.3354 52.6898 33.71 52.6898 39.4V50.9891H46.1129V40.712C46.1129 38.2607 46.0698 35.1084 42.6983 35.1084C39.3268 35.1084 38.7622 37.7657 38.7622 40.536V50.9891H32.1953V29.8569Z" fill="#BEE1D6"/>
<path d="M36.5 71.5C55.83 71.5 71.5 55.83 71.5 36.5C71.5 17.17 55.83 1.5 36.5 1.5C17.17 1.5 1.5 17.17 1.5 36.5C1.5 55.83 17.17 71.5 36.5 71.5Z" stroke="#BEE1D6" stroke-width="1.5" stroke-miterlimit="10"/>
</svg>
