<svg width="71" height="71" viewBox="0 0 71 71" fill="none" xmlns="http://www.w3.org/2000/svg">
<path d="M20.5059 28.8569H27.0761V49.9891H20.5059V28.8569ZM23.791 18.3506C24.5445 18.3499 25.2813 18.5727 25.9082 18.9908C26.5351 19.4089 27.0239 20.0035 27.3129 20.6994C27.6019 21.3954 27.678 22.1613 27.5316 22.9005C27.3853 23.6397 27.023 24.3189 26.4906 24.8522C25.9583 25.3854 25.2797 25.7489 24.5408 25.8965C23.8019 26.0442 23.0358 25.9694 22.3394 25.6817C21.6429 25.3939 21.0475 24.9061 20.6283 24.2799C20.2091 23.6538 19.985 22.9173 19.9844 22.1638C19.9844 21.1536 20.3852 20.1847 21.0989 19.4698C21.8126 18.7549 22.7808 18.3523 23.791 18.3506" fill="#BEE1D6"/>
<path d="M31.1953 28.8569H37.5064V31.7468H37.5961C38.473 30.0859 40.6154 28.3354 43.8109 28.3354C50.4541 28.3354 51.6898 32.71 51.6898 38.4V49.9891H45.1129V39.712C45.1129 37.2607 45.0698 34.1084 41.6983 34.1084C38.3268 34.1084 37.7622 36.7657 37.7622 39.536V49.9891H31.1953V28.8569Z" fill="#BEE1D6"/>
<path d="M35.5 70.5C54.83 70.5 70.5 54.83 70.5 35.5C70.5 16.17 54.83 0.5 35.5 0.5C16.17 0.5 0.5 16.17 0.5 35.5C0.5 54.83 16.17 70.5 35.5 70.5Z" stroke="#BEE1D6" stroke-miterlimit="10"/>
</svg>
