<svg width="72" height="72" viewBox="0 0 72 72" fill="none" xmlns="http://www.w3.org/2000/svg">
<path d="M20.6084 29.3672H27.1786V50.4994H20.6084V29.3672ZM23.8935 18.8608C24.647 18.8602 25.3838 19.083 26.0107 19.5011C26.6376 19.9192 27.1265 20.5138 27.4154 21.2097C27.7044 21.9056 27.7805 22.6716 27.6342 23.4108C27.4878 24.1499 27.1255 24.8291 26.5932 25.3624C26.0608 25.8957 25.3823 26.2592 24.6434 26.4068C23.9044 26.5545 23.1383 26.4797 22.4419 26.1919C21.7455 25.9042 21.15 25.4164 20.7308 24.7902C20.3117 24.164 20.0876 23.4276 20.0869 22.6741C20.0869 21.6639 20.4877 20.695 21.2014 19.9801C21.9151 19.2651 22.8833 18.8626 23.8935 18.8608" fill="white"/>
<path d="M31.2979 29.3672H37.6089V32.257H37.6986C38.5755 30.5962 40.718 28.8457 43.9134 28.8457C50.5566 28.8457 51.7923 33.2203 51.7923 38.9102V50.4994H45.2155V40.2223C45.2155 37.7709 45.1723 34.6187 41.8008 34.6187C38.4294 34.6187 37.8647 37.276 37.8647 40.0462V50.4994H31.2979V29.3672Z" fill="white"/>
<path d="M35.6025 71.0103C54.9325 71.0103 70.6025 55.3402 70.6025 36.0103C70.6025 16.6803 54.9325 1.01025 35.6025 1.01025C16.2726 1.01025 0.602539 16.6803 0.602539 36.0103C0.602539 55.3402 16.2726 71.0103 35.6025 71.0103Z" stroke="white" stroke-miterlimit="10"/>
</svg>
