<svg width="40" height="30" viewBox="0 0 40 30" fill="none" xmlns="http://www.w3.org/2000/svg">
<path fill-rule="evenodd" clip-rule="evenodd" d="M38.9938 0.541558C39.0563 0.61799 39.0679 0.724001 39.0235 0.812149L24.7235 29.2121C24.6839 29.2908 24.6058 29.3428 24.518 29.3491C24.4301 29.3553 24.3455 29.3149 24.2951 29.2427L15.141 16.1085L1.11666 11.1353C1.00195 11.0947 0.933201 10.9773 0.953839 10.8573C0.974478 10.7374 1.0785 10.6497 1.20022 10.6497H1.26682L38.7346 0.458482C38.8298 0.432579 38.9314 0.465126 38.9938 0.541558ZM2.08041 10.9466L15.3838 15.6641C15.433 15.6815 15.4755 15.7139 15.5053 15.7568L24.4655 28.6127L38.3247 1.08813L2.08041 10.9466Z" fill="black"/>
<path fill-rule="evenodd" clip-rule="evenodd" d="M39.0104 0.564368C39.0852 0.680446 39.0517 0.835154 38.9356 0.909916L15.3356 16.1099C15.2195 16.1847 15.0648 16.1512 14.99 16.0351C14.9153 15.919 14.9488 15.7643 15.0649 15.6896L38.6649 0.489558C38.7809 0.414796 38.9356 0.448289 39.0104 0.564368Z" fill="black"/>
<path fill-rule="evenodd" clip-rule="evenodd" d="M15.2381 15.7572C15.3385 15.7317 15.4443 15.7708 15.504 15.8555L19.804 21.9555C19.882 22.0662 19.8577 22.219 19.749 22.3L14.249 26.4C14.169 26.4596 14.0611 26.466 13.9746 26.416C13.8881 26.3661 13.8397 26.2695 13.8513 26.1703L15.0513 15.9703C15.0634 15.8674 15.1377 15.7827 15.2381 15.7572ZM15.4716 16.6774L14.4157 25.652L19.255 22.0446L15.4716 16.6774Z" fill="black"/>
</svg>
