<svg width="39" height="30" viewBox="0 0 39 30" fill="none" xmlns="http://www.w3.org/2000/svg">
<path fill-rule="evenodd" clip-rule="evenodd" d="M38.2136 0.291558C38.276 0.36799 38.2876 0.474001 38.2432 0.562149L23.9432 28.9621C23.9036 29.0408 23.8256 29.0928 23.7377 29.0991C23.6499 29.1053 23.5652 29.0649 23.5148 28.9927L14.3607 15.8585L0.336391 10.8853C0.221675 10.8447 0.152927 10.7273 0.173566 10.6073C0.194204 10.4874 0.298231 10.3997 0.419945 10.3997H0.486551L37.9543 0.208482C38.0496 0.182579 38.1511 0.215126 38.2136 0.291558ZM1.30014 10.6966L14.6035 15.4141C14.6527 15.4315 14.6952 15.4639 14.725 15.5068L23.6853 28.3627L37.5445 0.838131L1.30014 10.6966Z" fill="white"/>
<path fill-rule="evenodd" clip-rule="evenodd" d="M38.2301 0.314368C38.3049 0.430446 38.2714 0.585154 38.1553 0.659916L14.5553 15.8599C14.4392 15.9347 14.2845 15.9012 14.2098 15.7851C14.135 15.669 14.1685 15.5143 14.2846 15.4396L37.8846 0.239558C38.0007 0.164796 38.1554 0.198289 38.2301 0.314368Z" fill="white"/>
<path fill-rule="evenodd" clip-rule="evenodd" d="M14.4579 15.5072C14.5583 15.4817 14.664 15.5208 14.7237 15.6055L19.0237 21.7055C19.1017 21.8162 19.0774 21.969 18.9688 22.05L13.4688 26.15C13.3887 26.2096 13.2808 26.216 13.1943 26.166C13.1079 26.1161 13.0594 26.0195 13.0711 25.9203L14.2711 15.7203C14.2832 15.6174 14.3575 15.5327 14.4579 15.5072ZM14.6913 16.4274L13.6355 25.402L18.4747 21.7946L14.6913 16.4274Z" fill="white"/>
</svg>
