<svg width="40" height="30" viewBox="0 0 40 30" fill="none" xmlns="http://www.w3.org/2000/svg">
<path fill-rule="evenodd" clip-rule="evenodd" d="M38.9938 0.554741C39.0563 0.631173 39.0679 0.737184 39.0235 0.825333L24.7235 29.2253C24.6839 29.304 24.6058 29.356 24.518 29.3623C24.4301 29.3685 24.3455 29.3281 24.2951 29.2558L15.141 16.1217L1.11666 11.1485C1.00195 11.1078 0.933201 10.9905 0.953839 10.8705C0.974478 10.7506 1.0785 10.6629 1.20022 10.6629H1.26682L38.7346 0.471666C38.8298 0.445762 38.9314 0.478309 38.9938 0.554741ZM2.08041 10.9598L15.3838 15.6773C15.433 15.6947 15.4755 15.7271 15.5053 15.77L24.4655 28.6259L38.3247 1.10131L2.08041 10.9598Z" fill="#BEE1D6" stroke="#BEE1D6" stroke-width="0.25" stroke-miterlimit="10" stroke-linecap="round" stroke-linejoin="round"/>
<path fill-rule="evenodd" clip-rule="evenodd" d="M39.0104 0.577551C39.0852 0.69363 39.0517 0.848337 38.9356 0.9231L15.3356 16.1231C15.2195 16.1979 15.0648 16.1644 14.99 16.0483C14.9153 15.9322 14.9488 15.7775 15.0649 15.7027L38.6649 0.502742C38.7809 0.42798 38.9356 0.461473 39.0104 0.577551Z" fill="#BEE1D6" stroke="#BEE1D6" stroke-width="0.25" stroke-miterlimit="10" stroke-linecap="round" stroke-linejoin="round"/>
<path fill-rule="evenodd" clip-rule="evenodd" d="M15.2381 15.7704C15.3385 15.7449 15.4443 15.784 15.504 15.8687L19.804 21.9687C19.882 22.0794 19.8577 22.2322 19.749 22.3131L14.249 26.4131C14.169 26.4728 14.0611 26.4791 13.9746 26.4292C13.8881 26.3793 13.8397 26.2827 13.8513 26.1835L15.0513 15.9835C15.0634 15.8806 15.1377 15.7959 15.2381 15.7704ZM15.4716 16.6906L14.4157 25.6652L19.255 22.0578L15.4716 16.6906Z" fill="#BEE1D6" stroke="#BEE1D6" stroke-width="0.25" stroke-miterlimit="10" stroke-linecap="round" stroke-linejoin="round"/>
</svg>
