<?xml version="1.0" encoding="utf-8"?>
<!-- Generator: Adobe Illustrator 24.3.0, SVG Export Plug-In . SVG Version: 6.00 Build 0)  -->
<svg version="1.1" id="Layer_1" xmlns="http://www.w3.org/2000/svg" xmlns:xlink="http://www.w3.org/1999/xlink" x="0px" y="0px"
	 viewBox="0 0 39.5 29.6" style="enable-background:new 0 0 39.5 29.6;" xml:space="preserve">
<style type="text/css">
	.st0{fill:#FFFFFF;}
</style>
<g id="Layer_2_1_">
	<g id="OBJECTS">
		<path class="st0" d="M39.3,0.2C39.2,0.1,39,0,38.8,0h-0.1L0.5,10.4C0.2,10.5,0,10.7,0,11c0,0.3,0.2,0.5,0.4,0.6l14,4.6l-1.2,10
			c0,0.3,0.1,0.5,0.3,0.6c0.1,0.1,0.2,0.1,0.3,0.1c0.1,0,0.3-0.1,0.4-0.1l5.1-3.9l4.5,6.4c0.1,0.2,0.3,0.3,0.5,0.3l0,0
			c0.2,0,0.4-0.2,0.5-0.4L39.4,1C39.6,0.8,39.5,0.5,39.3,0.2L39.3,0.2z M34.8,2.4L15,15.1L3,11.1L34.8,2.4z M14.7,24.8l0.9-7.3
			l3,4.3L14.7,24.8z M24.2,27.7L16.1,16L37.2,2.5L24.2,27.7z"/>
	</g>
</g>
</svg>
