<svg xmlns="http://www.w3.org/2000/svg" viewBox="0 0 39.51 29.6"><defs><style>.cls-1{fill:#bee1d6;}</style></defs><g id="Layer_2" data-name="Layer 2"><g id="Layer_1-2" data-name="Layer 1"><g id="Layer_2-2" data-name="Layer 2"><g id="OBJECTS"><path class="cls-1" d="M39.3.2a.76.76,0,0,0-.5-.2h-.1L.5,10.4A.63.63,0,0,0,0,11a.68.68,0,0,0,.4.6l14,4.6-1.2,10a.6.6,0,0,0,.3.6.37.37,0,0,0,.3.1c.1,0,.3-.1.4-.1l5.1-3.9,4.5,6.4a.55.55,0,0,0,.5.3h0a.66.66,0,0,0,.5-.4L39.4,1c.2-.2.1-.5-.1-.8ZM34.8,2.4,15,15.1l-12-4ZM14.7,24.8l.9-7.3,3,4.3Zm9.5,2.9L16.1,16,37.2,2.5Z"/></g></g></g></g></svg>