<svg width="40" height="31" viewBox="0 0 40 31" fill="none" xmlns="http://www.w3.org/2000/svg">
<path fill-rule="evenodd" clip-rule="evenodd" d="M39.2136 1.29156C39.276 1.36799 39.2876 1.474 39.2432 1.56215L24.9432 29.9621C24.9036 30.0408 24.8256 30.0928 24.7377 30.0991C24.6499 30.1053 24.5652 30.0649 24.5148 29.9927L15.3607 16.8585L1.33639 11.8853C1.22168 11.8447 1.15293 11.7273 1.17357 11.6073C1.1942 11.4874 1.29823 11.3997 1.41995 11.3997H1.48655L38.9543 1.20848C39.0496 1.18258 39.1511 1.21513 39.2136 1.29156ZM2.30014 11.6966L15.6035 16.4141C15.6527 16.4315 15.6952 16.4639 15.725 16.5068L24.6853 29.3627L38.5445 1.83813L2.30014 11.6966Z" fill="white" stroke="white" stroke-miterlimit="10" stroke-linecap="round" stroke-linejoin="round"/>
<path fill-rule="evenodd" clip-rule="evenodd" d="M39.2301 1.31437C39.3049 1.43045 39.2714 1.58515 39.1553 1.65992L15.5553 16.8599C15.4392 16.9347 15.2845 16.9012 15.2098 16.7851C15.135 16.669 15.1685 16.5143 15.2846 16.4396L38.8846 1.23956C39.0007 1.1648 39.1554 1.19829 39.2301 1.31437Z" fill="white" stroke="white" stroke-miterlimit="10" stroke-linecap="round" stroke-linejoin="round"/>
<path fill-rule="evenodd" clip-rule="evenodd" d="M15.4579 16.5072C15.5583 16.4817 15.664 16.5208 15.7237 16.6055L20.0237 22.7055C20.1017 22.8162 20.0774 22.969 19.9688 23.05L14.4688 27.15C14.3887 27.2096 14.2808 27.216 14.1943 27.166C14.1079 27.1161 14.0594 27.0195 14.0711 26.9203L15.2711 16.7203C15.2832 16.6174 15.3575 16.5327 15.4579 16.5072ZM15.6913 17.4274L14.6355 26.402L19.4747 22.7946L15.6913 17.4274Z" fill="white" stroke="white" stroke-miterlimit="10" stroke-linecap="round" stroke-linejoin="round"/>
</svg>
