<svg width="43" height="57" viewBox="0 0 43 57" fill="none" xmlns="http://www.w3.org/2000/svg">
<path fill-rule="evenodd" clip-rule="evenodd" d="M26.5846 10.836C26.6673 10.662 26.8755 10.5879 27.0495 10.6706C28.9396 11.5683 32.8152 13.742 35.8412 18.1391C39.716 23.7624 39.9047 29.4778 39.8574 31.5121C39.8529 31.7048 39.6931 31.8573 39.5004 31.8528C39.3077 31.8484 39.1552 31.6885 39.1597 31.4959C39.2054 29.5289 39.0219 23.985 35.2664 18.535L35.2663 18.5348C32.3369 14.278 28.5822 12.1712 26.7501 11.3009C26.576 11.2183 26.5019 11.0101 26.5846 10.836Z" fill="black"/>
<path fill-rule="evenodd" clip-rule="evenodd" d="M24.3968 16.143C24.4779 15.9682 24.6854 15.8923 24.8602 15.9735C26.1972 16.5942 28.8603 18.1166 31.0007 21.1606L31.0018 21.1622L31.0017 21.1622C33.7155 25.0662 33.8092 29.0162 33.8092 30.4806C33.8092 30.6733 33.653 30.8295 33.4603 30.8295C33.2676 30.8295 33.1113 30.6733 33.1113 30.4806C33.1113 29.0604 33.019 25.2873 30.4292 21.5612C28.3822 18.6504 25.8348 17.1954 24.5663 16.6065C24.3915 16.5253 24.3156 16.3178 24.3968 16.143Z" fill="black"/>
<path fill-rule="evenodd" clip-rule="evenodd" d="M23.4705 22.6939C23.5567 22.5216 23.7663 22.4517 23.9387 22.5379C24.6116 22.8744 25.9267 23.6038 26.9984 25.114L26.9997 25.1158L26.9997 25.1158C28.365 27.0662 28.412 29.0629 28.412 29.7825C28.412 29.9752 28.2558 30.1314 28.0631 30.1314C27.8703 30.1314 27.7141 29.9752 27.7141 29.7825C27.7141 29.1063 27.6681 27.2883 26.4286 25.517C25.4532 24.1431 24.2562 23.4769 23.6266 23.1621C23.4542 23.0759 23.3843 22.8663 23.4705 22.6939Z" fill="black"/>
<path fill-rule="evenodd" clip-rule="evenodd" d="M11.4902 0.806754C12.023 0.662204 12.6803 0.557477 13.3063 0.66182L13.3139 0.663079L13.3214 0.664668C15.0033 1.02143 15.8178 2.527 16.4023 3.60752C16.4148 3.63068 16.4273 3.65364 16.4396 3.6764C17.1635 4.98021 17.5441 6.46596 17.8698 7.90815C18.032 8.62656 18.2033 9.42739 18.2156 10.2011C18.2279 10.9775 18.0811 11.7607 17.5783 12.4252C16.9488 13.313 15.9159 13.7142 15.0468 14.0344C14.4418 14.2671 13.8254 14.4997 13.2101 14.7318L13.2093 14.7322C12.5926 14.9649 11.9772 15.1971 11.3736 15.4293L11.3708 15.4303L11.3708 15.4303C11.0065 15.567 10.7468 15.7157 10.6256 15.9198C10.5106 16.159 10.5597 16.4445 10.6577 16.8855C11.9055 22.0142 13.8461 26.9597 16.3417 31.5834C19.1602 36.0169 22.5792 40.0365 26.4613 43.5958C26.8086 43.8933 27.0343 44.0664 27.3 44.0664C27.5693 44.0664 27.7962 43.8888 28.0983 43.6371C28.5843 43.2205 29.0818 42.7924 29.5797 42.364L29.5848 42.3596C30.0849 41.9292 30.5853 41.4986 31.0742 41.0796L31.0777 41.0767L31.0812 41.0738C31.1016 41.0572 31.1222 41.0405 31.1428 41.0237C31.8538 40.4454 32.7006 39.7567 33.7133 39.604C34.539 39.4713 35.3061 39.7154 35.9857 40.0984C36.6629 40.4801 37.2812 41.0158 37.8176 41.5056C38.8781 42.4739 40.0354 43.5309 40.7645 44.7448C40.7956 44.7945 40.8273 44.845 40.8595 44.8962C41.1806 45.4073 41.5468 45.9903 41.7873 46.6166C42.0562 47.3171 42.1795 48.0985 41.9167 48.9395L41.9157 48.9426L41.9147 48.9457C41.7044 49.5765 41.2896 50.0869 40.9139 50.5095C39.4325 52.1819 37.5277 53.3695 35.7194 54.4823C34.2424 55.4054 32.6338 56.3894 30.7632 56.4884C28.4423 56.6357 26.3062 55.3538 24.5355 54.0492C17.9835 49.3221 12.463 43.2862 8.20653 36.4103L8.15428 36.3259V36.3205C8.15294 36.3179 8.15165 36.3154 8.15041 36.3129C8.14239 36.2969 8.136 36.2814 8.13087 36.2668C4.12053 29.2601 1.46112 21.5068 0.479996 13.5177L0.479307 13.5121L0.479352 13.5121C0.248116 11.3384 0.0860356 8.8461 1.32139 6.86954C2.3057 5.29464 3.96923 4.32485 5.491 3.44868L5.49117 3.44858C7.34722 2.38136 9.34111 1.28597 11.4902 0.806754ZM13.1841 1.34899C12.6985 1.26981 12.1527 1.34946 11.6658 1.48226L11.6578 1.48444L11.6497 1.48624C9.6145 1.93851 7.70281 2.98194 5.83905 4.0536C4.29012 4.94541 2.78992 5.83667 1.9132 7.23942C0.822692 8.98424 0.939205 11.2364 1.17304 13.4354C2.13842 21.2931 4.74801 28.9252 8.68575 35.8312H8.85218V36.1272C13.0561 42.8948 18.497 48.8323 24.9452 53.4842L24.948 53.4863C26.7125 54.7864 28.6695 55.9227 30.7207 55.7918L30.7246 55.7916C32.3889 55.704 33.8502 54.8276 35.3502 53.89L35.3523 53.8887C37.1725 52.7686 38.989 51.6302 40.3919 50.0463L40.3923 50.0459C40.7603 49.6319 41.0892 49.2127 41.2515 48.7282C41.4528 48.0814 41.3666 47.468 41.1357 46.8667C40.9211 46.3077 40.5915 45.7824 40.2649 45.2618C40.2336 45.2118 40.2023 45.1619 40.1711 45.1121L40.1677 45.1067L40.1678 45.1067C39.501 43.9954 38.426 43.0061 37.3471 42.021C36.8134 41.5338 36.2453 41.0459 35.643 40.7064C35.0435 40.3685 34.4387 40.1939 33.8227 40.2933L33.8189 40.2939C33.0021 40.4164 32.2883 40.9923 31.5248 41.6125C31.038 42.0298 30.5396 42.4587 30.0409 42.8878L30.04 42.8886C29.5399 43.3189 29.0395 43.7495 28.5507 44.1685L28.547 44.1716L28.547 44.1716C28.5345 44.182 28.5216 44.1928 28.5084 44.2039C28.25 44.4205 27.8398 44.7643 27.3 44.7643C26.7501 44.7643 26.3357 44.408 26.0363 44.1508C26.025 44.141 26.0138 44.1314 26.0028 44.122L25.9984 44.1182L25.9941 44.1143C22.0646 40.5122 18.6015 36.4411 15.746 31.9473L15.7394 31.9368L15.7335 31.9259C13.2076 27.2484 11.2424 22.2422 9.97871 17.0471L9.97788 17.0437L9.97713 17.0403C9.97403 17.0264 9.97086 17.0122 9.96765 16.9978C9.88138 16.6119 9.7633 16.0836 10.0057 15.5989L10.01 15.5902L10.0148 15.5818C10.2677 15.1393 10.7495 14.918 11.1245 14.7773C11.7298 14.5445 12.3465 14.3118 12.9621 14.0795L12.9629 14.0792C13.5796 13.8465 14.195 13.6143 14.7986 13.3821L14.8033 13.3803L14.8033 13.3803C15.7001 13.0499 16.5247 12.7075 17.0117 12.0177L17.0152 12.0127L17.0189 12.0078C17.3971 11.5102 17.5287 10.8995 17.5178 10.2122C17.5068 9.52034 17.3525 8.78579 17.189 8.06187C16.8634 6.62005 16.4998 5.22182 15.8286 4.01361L15.8267 4.01035L15.8268 4.01034C15.2056 2.86359 14.531 1.63873 13.1841 1.34899Z" fill="black"/>
</svg>
