<svg width="43" height="57" viewBox="0 0 43 57" fill="none" xmlns="http://www.w3.org/2000/svg">
<path fill-rule="evenodd" clip-rule="evenodd" d="M27.0846 10.836C27.1673 10.662 27.3755 10.5879 27.5495 10.6706C29.4396 11.5683 33.3152 13.742 36.3412 18.1391C40.216 23.7624 40.4047 29.4778 40.3574 31.5121C40.3529 31.7048 40.1931 31.8573 40.0004 31.8528C39.8077 31.8484 39.6552 31.6885 39.6597 31.4959C39.7054 29.5289 39.5219 23.985 35.7664 18.535L35.7663 18.5348C32.8369 14.278 29.0822 12.1712 27.2501 11.3009C27.076 11.2183 27.0019 11.0101 27.0846 10.836Z" fill="white"/>
<path fill-rule="evenodd" clip-rule="evenodd" d="M24.8968 16.143C24.9779 15.9682 25.1854 15.8923 25.3602 15.9735C26.6972 16.5942 29.3603 18.1166 31.5007 21.1606L31.5018 21.1622L31.5017 21.1622C34.2155 25.0662 34.3092 29.0162 34.3092 30.4806C34.3092 30.6733 34.153 30.8295 33.9603 30.8295C33.7676 30.8295 33.6113 30.6733 33.6113 30.4806C33.6113 29.0604 33.519 25.2873 30.9292 21.5612C28.8822 18.6504 26.3348 17.1954 25.0663 16.6065C24.8915 16.5253 24.8156 16.3178 24.8968 16.143Z" fill="white"/>
<path fill-rule="evenodd" clip-rule="evenodd" d="M23.9705 22.6939C24.0567 22.5216 24.2663 22.4517 24.4387 22.5379C25.1116 22.8744 26.4267 23.6038 27.4984 25.114L27.4997 25.1158L27.4997 25.1158C28.865 27.0662 28.912 29.0629 28.912 29.7825C28.912 29.9752 28.7558 30.1314 28.5631 30.1314C28.3703 30.1314 28.2141 29.9752 28.2141 29.7825C28.2141 29.1063 28.1681 27.2883 26.9286 25.517C25.9532 24.1431 24.7562 23.4769 24.1266 23.1621C23.9542 23.0759 23.8843 22.8663 23.9705 22.6939Z" fill="white"/>
<path fill-rule="evenodd" clip-rule="evenodd" d="M11.9902 0.806754C12.523 0.662204 13.1803 0.557477 13.8063 0.66182L13.8139 0.663079L13.8214 0.664668C15.5033 1.02143 16.3178 2.527 16.9023 3.60752C16.9148 3.63068 16.9273 3.65364 16.9396 3.6764C17.6635 4.98021 18.0441 6.46596 18.3698 7.90815C18.532 8.62656 18.7033 9.42739 18.7156 10.2011C18.7279 10.9775 18.5811 11.7607 18.0783 12.4252C17.4488 13.313 16.4159 13.7142 15.5468 14.0344C14.9418 14.2671 14.3254 14.4997 13.7101 14.7318L13.7093 14.7322C13.0926 14.9649 12.4772 15.1971 11.8736 15.4293L11.8708 15.4303L11.8708 15.4303C11.5065 15.567 11.2468 15.7157 11.1256 15.9198C11.0106 16.159 11.0597 16.4445 11.1577 16.8855C12.4055 22.0142 14.3461 26.9597 16.8417 31.5834C19.6602 36.0169 23.0792 40.0365 26.9613 43.5958C27.3086 43.8933 27.5343 44.0664 27.8 44.0664C28.0693 44.0664 28.2962 43.8888 28.5983 43.6371C29.0843 43.2205 29.5818 42.7924 30.0797 42.364L30.0848 42.3596C30.5849 41.9292 31.0853 41.4986 31.5742 41.0796L31.5777 41.0767L31.5812 41.0738C31.6016 41.0572 31.6222 41.0405 31.6428 41.0237C32.3538 40.4454 33.2006 39.7567 34.2133 39.604C35.039 39.4713 35.8061 39.7154 36.4857 40.0984C37.1629 40.4801 37.7812 41.0158 38.3176 41.5056C39.3781 42.4739 40.5354 43.5309 41.2645 44.7448C41.2956 44.7945 41.3273 44.845 41.3595 44.8962C41.6806 45.4073 42.0468 45.9903 42.2873 46.6166C42.5562 47.3171 42.6795 48.0985 42.4167 48.9395L42.4157 48.9426L42.4147 48.9457C42.2044 49.5765 41.7896 50.0869 41.4139 50.5095C39.9325 52.1819 38.0277 53.3695 36.2194 54.4823C34.7424 55.4054 33.1338 56.3894 31.2632 56.4884C28.9423 56.6357 26.8062 55.3538 25.0355 54.0492C18.4835 49.3221 12.963 43.2862 8.70653 36.4103L8.65428 36.3259V36.3205C8.65294 36.3179 8.65165 36.3154 8.65041 36.3129C8.64239 36.2969 8.636 36.2814 8.63087 36.2668C4.62053 29.2601 1.96112 21.5068 0.979996 13.5177L0.979307 13.5121L0.979352 13.5121C0.748116 11.3384 0.586036 8.8461 1.82139 6.86954C2.8057 5.29464 4.46923 4.32485 5.991 3.44868L5.99117 3.44858C7.84722 2.38136 9.84111 1.28597 11.9902 0.806754ZM13.6841 1.34899C13.1985 1.26981 12.6527 1.34946 12.1658 1.48226L12.1578 1.48444L12.1497 1.48624C10.1145 1.93851 8.20281 2.98194 6.33905 4.0536C4.79012 4.94541 3.28992 5.83667 2.4132 7.23942C1.32269 8.98424 1.43921 11.2364 1.67304 13.4354C2.63842 21.2931 5.24801 28.9252 9.18575 35.8312H9.35218V36.1272C13.5561 42.8948 18.997 48.8323 25.4452 53.4842L25.448 53.4863C27.2125 54.7864 29.1695 55.9227 31.2207 55.7918L31.2246 55.7916C32.8889 55.704 34.3502 54.8276 35.8502 53.89L35.8523 53.8887C37.6725 52.7686 39.489 51.6302 40.8919 50.0463L40.8923 50.0459C41.2603 49.6319 41.5892 49.2127 41.7515 48.7282C41.9528 48.0814 41.8666 47.468 41.6357 46.8667C41.4211 46.3077 41.0915 45.7824 40.7649 45.2618C40.7336 45.2118 40.7023 45.1619 40.6711 45.1121L40.6677 45.1067L40.6678 45.1067C40.001 43.9954 38.926 43.0061 37.8471 42.021C37.3134 41.5338 36.7453 41.0459 36.143 40.7064C35.5435 40.3685 34.9387 40.1939 34.3227 40.2933L34.3189 40.2939C33.5021 40.4164 32.7883 40.9923 32.0248 41.6125C31.538 42.0298 31.0396 42.4587 30.5409 42.8878L30.54 42.8886C30.0399 43.3189 29.5395 43.7495 29.0507 44.1685L29.047 44.1716L29.047 44.1716C29.0345 44.182 29.0216 44.1928 29.0084 44.2039C28.75 44.4205 28.3398 44.7643 27.8 44.7643C27.2501 44.7643 26.8357 44.408 26.5363 44.1508C26.525 44.141 26.5138 44.1314 26.5028 44.122L26.4984 44.1182L26.4941 44.1143C22.5646 40.5122 19.1015 36.4411 16.246 31.9473L16.2394 31.9368L16.2335 31.9259C13.7076 27.2484 11.7424 22.2422 10.4787 17.0471L10.4779 17.0437L10.4771 17.0403C10.474 17.0264 10.4709 17.0122 10.4676 16.9978C10.3814 16.6119 10.2633 16.0836 10.5057 15.5989L10.51 15.5902L10.5148 15.5818C10.7677 15.1393 11.2495 14.918 11.6245 14.7773C12.2298 14.5445 12.8465 14.3118 13.4621 14.0795L13.4629 14.0792C14.0796 13.8465 14.695 13.6143 15.2986 13.3821L15.3033 13.3803L15.3033 13.3803C16.2001 13.0499 17.0247 12.7075 17.5117 12.0177L17.5152 12.0127L17.5189 12.0078C17.8971 11.5102 18.0287 10.8995 18.0178 10.2122C18.0068 9.52034 17.8525 8.78579 17.689 8.06187C17.3634 6.62005 16.9998 5.22182 16.3286 4.01361L16.3267 4.01035L16.3268 4.01034C15.7056 2.86359 15.031 1.63873 13.6841 1.34899Z" fill="white"/>
</svg>
